<svg width="1440" height="28" viewBox="0 0 1440 28" fill="none" xmlns="http://www.w3.org/2000/svg">
<path d="M-4.33984 6.9082V21H1.57812C5.81641 21 8.16992 18.4414 8.16992 13.8125C8.16992 9.4082 5.77734 6.9082 1.57812 6.9082H-4.33984ZM-0.755859 9.78906H0.933594C3.18945 9.78906 4.51758 11.2539 4.51758 13.8809C4.51758 16.6738 3.25781 18.1191 0.933594 18.1191H-0.755859V9.78906ZM16.4199 21V6.9082H12.8359V21H16.4199ZM34.4258 15.1309V13.3145H28.3906V15.7754H30.9688L30.959 16.0098C30.8711 17.4355 29.7383 18.3926 28.1074 18.3926C26.0566 18.3926 24.7383 16.6934 24.7383 13.9004C24.7383 11.1562 25.9297 9.51562 27.9316 9.51562C29.3379 9.51562 30.3926 10.2676 30.7441 11.5078H34.2793C33.9277 8.5293 31.3691 6.52734 27.9316 6.52734C23.7031 6.52734 21.0859 9.35938 21.0859 13.9395C21.0859 18.5781 23.6934 21.3809 28.0293 21.3809C32.0137 21.3809 34.4258 19.0078 34.4258 15.1309ZM42.6855 21V6.9082H39.1016V21H42.6855ZM54.8809 21V9.78906H58.9531V6.9082H47.2441V9.78906H51.3066V21H54.8809ZM71.0605 21H74.9668L70.2305 6.9082H65.8457L61.1191 21H64.6738L65.582 17.9043H70.1816L71.0605 21ZM67.8086 10.082H67.9941L69.5078 15.3262H66.2656L67.8086 10.082ZM88.9102 18.041H82.9238V6.9082H79.3398V21H88.9102V18.041ZM100.43 6.9082V21H104.014V16.8691H106.387C109.521 16.8691 111.68 14.9062 111.68 11.9082C111.68 8.88086 109.629 6.9082 106.602 6.9082H100.43ZM104.014 9.66211H105.654C107.168 9.66211 108.057 10.4336 108.057 11.918C108.057 13.3828 107.158 14.1641 105.635 14.1641H104.014V9.66211ZM119.9 16.0684H121.756L124.168 21H128.191L125.379 15.541C126.922 14.8672 127.781 13.2852 127.781 11.5566C127.781 8.64648 125.809 6.9082 122.518 6.9082H116.316V21H119.9V16.0684ZM119.9 9.61328H122.01C123.289 9.61328 124.119 10.3848 124.119 11.5859C124.119 12.8066 123.338 13.5391 122.02 13.5391H119.9V9.61328ZM138.922 6.52734C134.684 6.52734 131.969 9.36914 131.969 13.9492C131.969 18.5391 134.664 21.3809 138.922 21.3809C143.16 21.3809 145.865 18.5391 145.865 13.9492C145.865 9.36914 143.15 6.52734 138.922 6.52734ZM138.922 9.49609C140.895 9.49609 142.213 11.2344 142.213 13.9492C142.213 16.6738 140.895 18.4121 138.922 18.4121C136.92 18.4121 135.621 16.6738 135.621 13.9492C135.621 11.2344 136.939 9.49609 138.922 9.49609ZM150.531 6.9082V21H156.449C160.688 21 163.041 18.4414 163.041 13.8125C163.041 9.4082 160.648 6.9082 156.449 6.9082H150.531ZM154.115 9.78906H155.805C158.061 9.78906 159.389 11.2539 159.389 13.8809C159.389 16.6738 158.129 18.1191 155.805 18.1191H154.115V9.78906ZM171.281 6.9082H167.707V16.1367C167.707 19.3008 170.109 21.3809 173.771 21.3809C177.434 21.3809 179.836 19.3008 179.836 16.1367V6.9082H176.262V15.7559C176.262 17.3965 175.373 18.3633 173.771 18.3633C172.18 18.3633 171.281 17.3965 171.281 15.7559V6.9082ZM191.309 21.3809C194.922 21.3809 197.539 19.1055 197.656 15.8828H194.219C194.014 17.3965 192.861 18.3926 191.318 18.3926C189.346 18.3926 188.145 16.6934 188.145 13.9395C188.145 11.1953 189.346 9.51562 191.309 9.51562C192.852 9.51562 194.014 10.5508 194.199 12.084H197.646C197.539 8.89062 194.854 6.52734 191.309 6.52734C187.08 6.52734 184.492 9.34961 184.492 13.9492C184.492 18.5488 187.09 21.3809 191.309 21.3809ZM208.924 21V9.78906H212.996V6.9082H201.287V9.78906H205.35V21H208.924ZM224.457 6.9082V21H230.375C234.613 21 236.967 18.4414 236.967 13.8125C236.967 9.4082 234.574 6.9082 230.375 6.9082H224.457ZM228.041 9.78906H229.73C231.986 9.78906 233.314 11.2539 233.314 13.8809C233.314 16.6738 232.055 18.1191 229.73 18.1191H228.041V9.78906ZM251.291 18.1191H245.217V15.2383H250.93V12.6016H245.217V9.78906H251.291V6.9082H241.633V21H251.291V18.1191ZM255.732 16.9863C255.791 19.7012 258.037 21.3809 261.602 21.3809C265.293 21.3809 267.539 19.6035 267.539 16.6641C267.539 14.4277 266.289 13.168 263.506 12.6309L261.689 12.2793C260.205 11.9863 259.58 11.5371 259.58 10.7656C259.58 9.82812 260.41 9.23242 261.67 9.23242C262.93 9.23242 263.877 9.92578 263.955 10.9219H267.266C267.207 8.31445 264.922 6.52734 261.621 6.52734C258.223 6.52734 256.016 8.33398 256.016 11.0879C256.016 13.3047 257.344 14.7109 259.922 15.1992L261.777 15.5703C263.389 15.8926 264.004 16.3125 264.004 17.0938C264.004 18.0215 263.086 18.666 261.748 18.666C260.264 18.666 259.238 18.0117 259.15 16.9863H255.732ZM275.838 21V6.9082H272.254V21H275.838ZM293.844 15.1309V13.3145H287.809V15.7754H290.387L290.377 16.0098C290.289 17.4355 289.156 18.3926 287.525 18.3926C285.475 18.3926 284.156 16.6934 284.156 13.9004C284.156 11.1562 285.348 9.51562 287.35 9.51562C288.756 9.51562 289.811 10.2676 290.162 11.5078H293.697C293.346 8.5293 290.787 6.52734 287.35 6.52734C283.121 6.52734 280.504 9.35938 280.504 13.9395C280.504 18.5781 283.111 21.3809 287.447 21.3809C291.432 21.3809 293.844 19.0078 293.844 15.1309ZM301.918 21V12.9922H302.104L307.992 21H310.834V6.9082H307.436V14.8379H307.25L301.381 6.9082H298.52V21H301.918Z" fill="white"/>
<path d="M659.797 6.9082V21H664.631C668.82 21 671.281 18.3926 671.281 13.9492C671.281 9.51562 668.811 6.9082 664.631 6.9082H659.797ZM661.555 8.49023H664.514C667.639 8.49023 669.484 10.5215 669.484 13.9688C669.484 17.4062 667.658 19.418 664.514 19.418H661.555V8.49023ZM678.086 21V6.9082H676.328V21H678.086ZM683.006 17.3184C683.191 19.75 685.252 21.332 688.24 21.332C691.463 21.332 693.504 19.6816 693.504 17.0938C693.504 15.0234 692.332 13.8906 689.412 13.1582L687.938 12.7676C685.994 12.2695 685.223 11.6348 685.223 10.5312C685.223 9.10547 686.463 8.16797 688.338 8.16797C690.096 8.16797 691.287 9.02734 691.531 10.4727H693.299C693.152 8.19727 691.121 6.57617 688.396 6.57617C685.418 6.57617 683.416 8.19727 683.416 10.5898C683.416 12.5918 684.52 13.7441 687.068 14.3887L688.875 14.8574C690.818 15.3457 691.697 16.1074 691.697 17.3086C691.697 18.7051 690.301 19.7305 688.406 19.7305C686.404 19.7305 684.998 18.793 684.783 17.3184H683.006ZM703.854 21V8.49023H708.395V6.9082H697.555V8.49023H702.096V21H703.854ZM714.867 15.4238H718.334L721.352 21H723.412L720.15 15.1504C721.918 14.5938 722.982 13.0703 722.982 11.1074C722.982 8.56836 721.205 6.9082 718.49 6.9082H713.109V21H714.867V15.4238ZM714.867 8.4707H718.256C720.072 8.4707 721.166 9.47656 721.166 11.166C721.166 12.8945 720.141 13.8613 718.334 13.8613H714.867V8.4707ZM729.934 21V6.9082H728.176V21H729.934ZM741.025 21C744.023 21 745.801 19.5254 745.801 17.0449C745.801 15.1797 744.58 13.8613 742.656 13.6172V13.4609C744.014 13.2168 745.088 11.8887 745.088 10.4238C745.088 8.26562 743.506 6.9082 740.918 6.9082H735.527V21H741.025ZM737.285 8.46094H740.547C742.295 8.46094 743.311 9.29102 743.311 10.7266C743.311 12.2207 742.227 12.9824 740.098 12.9824H737.285V8.46094ZM737.285 19.4473V14.4961H740.596C742.842 14.4961 743.994 15.3262 743.994 16.957C743.994 18.5879 742.881 19.4473 740.762 19.4473H737.285ZM752.41 6.9082H750.652V16.1562C750.652 19.1641 752.752 21.332 756.248 21.332C759.744 21.332 761.844 19.1641 761.844 16.1562V6.9082H760.086V16.0391C760.086 18.168 758.689 19.7109 756.248 19.7109C753.807 19.7109 752.41 18.168 752.41 16.0391V6.9082ZM772.838 21V8.49023H777.379V6.9082H766.539V8.49023H771.08V21H772.838ZM790.824 19.418H783.852V14.5742H790.463V13.0117H783.852V8.49023H790.824V6.9082H782.094V21H790.824V19.418ZM796.008 6.9082V21H800.842C805.031 21 807.492 18.3926 807.492 13.9492C807.492 9.51562 805.021 6.9082 800.842 6.9082H796.008ZM797.766 8.49023H800.725C803.85 8.49023 805.695 10.5215 805.695 13.9688C805.695 17.4062 803.869 19.418 800.725 19.418H797.766V8.49023ZM825.604 21V8.49023H830.145V6.9082H819.305V8.49023H823.846V21H825.604ZM843.59 19.418H836.617V14.5742H843.229V13.0117H836.617V8.49023H843.59V6.9082H834.859V21H843.59V19.418ZM857.934 21H859.779L854.584 6.9082H852.846L847.65 21H849.496L850.912 16.9668H856.518L857.934 21ZM853.637 9.18359H853.793L856 15.4727H851.43L853.637 9.18359ZM878.137 21V6.9082H876.096L871.271 18.666H871.115L866.291 6.9082H864.25V21H865.891V10.2383H866.008L870.451 21H871.936L876.379 10.2383H876.496V21H878.137ZM883.057 17.3184C883.242 19.75 885.303 21.332 888.291 21.332C891.514 21.332 893.555 19.6816 893.555 17.0938C893.555 15.0234 892.383 13.8906 889.463 13.1582L887.988 12.7676C886.045 12.2695 885.273 11.6348 885.273 10.5312C885.273 9.10547 886.514 8.16797 888.389 8.16797C890.146 8.16797 891.338 9.02734 891.582 10.4727H893.35C893.203 8.19727 891.172 6.57617 888.447 6.57617C885.469 6.57617 883.467 8.19727 883.467 10.5898C883.467 12.5918 884.57 13.7441 887.119 14.3887L888.926 14.8574C890.869 15.3457 891.748 16.1074 891.748 17.3086C891.748 18.7051 890.352 19.7305 888.457 19.7305C886.455 19.7305 885.049 18.793 884.834 17.3184H883.057Z" fill="white"/>
<path d="M326.555 15.4238H330.021L333.039 21H335.1L331.838 15.1504C333.605 14.5938 334.67 13.0703 334.67 11.1074C334.67 8.56836 332.893 6.9082 330.178 6.9082H324.797V21H326.555V15.4238ZM326.555 8.4707H329.943C331.76 8.4707 332.854 9.47656 332.854 11.166C332.854 12.8945 331.828 13.8613 330.021 13.8613H326.555V8.4707ZM348.594 19.418H341.621V14.5742H348.232V13.0117H341.621V8.49023H348.594V6.9082H339.863V21H348.594V19.418ZM367.664 21V6.9082H365.623L360.799 18.666H360.643L355.818 6.9082H353.777V21H355.418V10.2383H355.535L359.979 21H361.463L365.906 10.2383H366.023V21H367.664ZM379.176 6.57617C375.191 6.57617 372.711 9.41797 372.711 13.9492C372.711 18.4609 375.133 21.332 379.176 21.332C383.199 21.332 385.641 18.4512 385.641 13.9492C385.641 9.42773 383.18 6.57617 379.176 6.57617ZM379.176 8.19727C382.057 8.19727 383.834 10.4238 383.834 13.9492C383.834 17.4453 382.066 19.7109 379.176 19.7109C376.246 19.7109 374.518 17.4453 374.518 13.9492C374.518 10.4238 376.305 8.19727 379.176 8.19727ZM395.521 21V8.49023H400.062V6.9082H389.223V8.49023H393.764V21H395.521ZM413.508 19.418H406.535V14.5742H413.146V13.0117H406.535V8.49023H413.508V6.9082H404.777V21H413.508V19.418ZM434.158 9.87695H434.275L437.518 21H439.178L443.016 6.9082H441.18L438.377 18.3633H438.26L435.105 6.9082H433.328L430.174 18.3633H430.057L427.254 6.9082H425.418L429.256 21H430.916L434.158 9.87695ZM453.023 6.57617C449.039 6.57617 446.559 9.41797 446.559 13.9492C446.559 18.4609 448.98 21.332 453.023 21.332C457.047 21.332 459.488 18.4512 459.488 13.9492C459.488 9.42773 457.027 6.57617 453.023 6.57617ZM453.023 8.19727C455.904 8.19727 457.682 10.4238 457.682 13.9492C457.682 17.4453 455.914 19.7109 453.023 19.7109C450.094 19.7109 448.365 17.4453 448.365 13.9492C448.365 10.4238 450.152 8.19727 453.023 8.19727ZM466.293 15.4238H469.76L472.777 21H474.838L471.576 15.1504C473.344 14.5938 474.408 13.0703 474.408 11.1074C474.408 8.56836 472.631 6.9082 469.916 6.9082H464.535V21H466.293V15.4238ZM466.293 8.4707H469.682C471.498 8.4707 472.592 9.47656 472.592 11.166C472.592 12.8945 471.566 13.8613 469.76 13.8613H466.293V8.4707ZM481.359 21V16.0781L483.049 14.2129L488.137 21H490.412L484.26 12.9922L489.895 6.9082H487.688L481.516 13.7539H481.359V6.9082H479.602V21H481.359Z" fill="white"/>
<path d="M515.234 6.9082H511.66V16.1367C511.66 19.3008 514.062 21.3809 517.725 21.3809C521.387 21.3809 523.789 19.3008 523.789 16.1367V6.9082H520.215V15.7559C520.215 17.3965 519.326 18.3633 517.725 18.3633C516.133 18.3633 515.234 17.3965 515.234 15.7559V6.9082ZM528.299 21H532.107L534.803 16.5371H534.988L537.664 21H541.697L537.234 13.9297L541.736 6.9082H537.752L535.203 11.5762H535.018L532.488 6.9082H528.309L532.625 13.8906L528.299 21ZM553.148 6.9082V21H559.066C563.305 21 565.658 18.4414 565.658 13.8125C565.658 9.4082 563.266 6.9082 559.066 6.9082H553.148ZM556.732 9.78906H558.422C560.678 9.78906 562.006 11.2539 562.006 13.8809C562.006 16.6738 560.746 18.1191 558.422 18.1191H556.732V9.78906ZM579.982 18.1191H573.908V15.2383H579.621V12.6016H573.908V9.78906H579.982V6.9082H570.324V21H579.982V18.1191ZM584.424 16.9863C584.482 19.7012 586.729 21.3809 590.293 21.3809C593.984 21.3809 596.23 19.6035 596.23 16.6641C596.23 14.4277 594.98 13.168 592.197 12.6309L590.381 12.2793C588.896 11.9863 588.271 11.5371 588.271 10.7656C588.271 9.82812 589.102 9.23242 590.361 9.23242C591.621 9.23242 592.568 9.92578 592.646 10.9219H595.957C595.898 8.31445 593.613 6.52734 590.312 6.52734C586.914 6.52734 584.707 8.33398 584.707 11.0879C584.707 13.3047 586.035 14.7109 588.613 15.1992L590.469 15.5703C592.08 15.8926 592.695 16.3125 592.695 17.0938C592.695 18.0215 591.777 18.666 590.439 18.666C588.955 18.666 587.93 18.0117 587.842 16.9863H584.424ZM604.529 21V6.9082H600.945V21H604.529ZM622.535 15.1309V13.3145H616.5V15.7754H619.078L619.068 16.0098C618.98 17.4355 617.848 18.3926 616.217 18.3926C614.166 18.3926 612.848 16.6934 612.848 13.9004C612.848 11.1562 614.039 9.51562 616.041 9.51562C617.447 9.51562 618.502 10.2676 618.854 11.5078H622.389C622.037 8.5293 619.479 6.52734 616.041 6.52734C611.812 6.52734 609.195 9.35938 609.195 13.9395C609.195 18.5781 611.803 21.3809 616.139 21.3809C620.123 21.3809 622.535 19.0078 622.535 15.1309ZM630.609 21V12.9922H630.795L636.684 21H639.525V6.9082H636.127V14.8379H635.941L630.072 6.9082H627.211V21H630.609Z" fill="white"/>
<path d="M915.812 21.3809C919.426 21.3809 922.043 19.1055 922.16 15.8828H918.723C918.518 17.3965 917.365 18.3926 915.822 18.3926C913.85 18.3926 912.648 16.6934 912.648 13.9395C912.648 11.1953 913.85 9.51562 915.812 9.51562C917.355 9.51562 918.518 10.5508 918.703 12.084H922.15C922.043 8.89062 919.357 6.52734 915.812 6.52734C911.584 6.52734 908.996 9.34961 908.996 13.9492C908.996 18.5488 911.594 21.3809 915.812 21.3809ZM930.342 16.0684H932.197L934.609 21H938.633L935.82 15.541C937.363 14.8672 938.223 13.2852 938.223 11.5566C938.223 8.64648 936.25 6.9082 932.959 6.9082H926.758V21H930.342V16.0684ZM930.342 9.61328H932.451C933.73 9.61328 934.561 10.3848 934.561 11.5859C934.561 12.8066 933.779 13.5391 932.461 13.5391H930.342V9.61328ZM952.732 18.1191H946.658V15.2383H952.371V12.6016H946.658V9.78906H952.732V6.9082H943.074V21H952.732V18.1191ZM966.783 21H970.689L965.953 6.9082H961.568L956.842 21H960.396L961.305 17.9043H965.904L966.783 21ZM963.531 10.082H963.717L965.23 15.3262H961.988L963.531 10.082ZM980.482 21V9.78906H984.555V6.9082H972.846V9.78906H976.908V21H980.482ZM992.697 21V6.9082H989.113V21H992.697ZM1006.15 21L1010.58 6.9082H1006.71L1004.08 17.2793H1003.9L1001.19 6.9082H997.08L1001.62 21H1006.15ZM1018.53 21V6.9082H1014.95V21H1018.53ZM1030.73 21V9.78906H1034.8V6.9082H1023.09V9.78906H1027.15V21H1030.73ZM1046.85 21V16.1562L1051.7 6.9082H1047.88L1045.16 12.6602H1044.97L1042.23 6.9082H1038.41L1043.28 16.1562V21H1046.85Z" fill="white"/>
<path d="M1202.04 16.9863C1202.1 19.7012 1204.35 21.3809 1207.91 21.3809C1211.61 21.3809 1213.85 19.6035 1213.85 16.6641C1213.85 14.4277 1212.6 13.168 1209.82 12.6309L1208 12.2793C1206.52 11.9863 1205.89 11.5371 1205.89 10.7656C1205.89 9.82812 1206.72 9.23242 1207.98 9.23242C1209.24 9.23242 1210.19 9.92578 1210.27 10.9219H1213.58C1213.52 8.31445 1211.23 6.52734 1207.93 6.52734C1204.54 6.52734 1202.33 8.33398 1202.33 11.0879C1202.33 13.3047 1203.66 14.7109 1206.23 15.1992L1208.09 15.5703C1209.7 15.8926 1210.32 16.3125 1210.32 17.0938C1210.32 18.0215 1209.4 18.666 1208.06 18.666C1206.58 18.666 1205.55 18.0117 1205.46 16.9863H1202.04ZM1222.14 6.9082H1218.57V16.1367C1218.57 19.3008 1220.97 21.3809 1224.63 21.3809C1228.29 21.3809 1230.7 19.3008 1230.7 16.1367V6.9082H1227.12V15.7559C1227.12 17.3965 1226.23 18.3633 1224.63 18.3633C1223.04 18.3633 1222.14 17.3965 1222.14 15.7559V6.9082ZM1235.4 16.9863C1235.46 19.7012 1237.71 21.3809 1241.27 21.3809C1244.96 21.3809 1247.21 19.6035 1247.21 16.6641C1247.21 14.4277 1245.96 13.168 1243.17 12.6309L1241.36 12.2793C1239.87 11.9863 1239.25 11.5371 1239.25 10.7656C1239.25 9.82812 1240.08 9.23242 1241.34 9.23242C1242.6 9.23242 1243.54 9.92578 1243.62 10.9219H1246.93C1246.88 8.31445 1244.59 6.52734 1241.29 6.52734C1237.89 6.52734 1235.68 8.33398 1235.68 11.0879C1235.68 13.3047 1237.01 14.7109 1239.59 15.1992L1241.45 15.5703C1243.06 15.8926 1243.67 16.3125 1243.67 17.0938C1243.67 18.0215 1242.75 18.666 1241.42 18.666C1239.93 18.666 1238.91 18.0117 1238.82 16.9863H1235.4ZM1251.92 6.9082V21H1255.51V16.8691H1257.88C1261.01 16.8691 1263.17 14.9062 1263.17 11.9082C1263.17 8.88086 1261.12 6.9082 1258.09 6.9082H1251.92ZM1255.51 9.66211H1257.15C1258.66 9.66211 1259.55 10.4336 1259.55 11.918C1259.55 13.3828 1258.65 14.1641 1257.13 14.1641H1255.51V9.66211ZM1277.47 18.1191H1271.39V15.2383H1277.11V12.6016H1271.39V9.78906H1277.47V6.9082H1267.81V21H1277.47V18.1191ZM1285.92 21V12.9922H1286.11L1292 21H1294.84V6.9082H1291.44V14.8379H1291.25L1285.38 6.9082H1282.52V21H1285.92ZM1299.55 16.9863C1299.61 19.7012 1301.86 21.3809 1305.42 21.3809C1309.11 21.3809 1311.36 19.6035 1311.36 16.6641C1311.36 14.4277 1310.11 13.168 1307.33 12.6309L1305.51 12.2793C1304.03 11.9863 1303.4 11.5371 1303.4 10.7656C1303.4 9.82812 1304.23 9.23242 1305.49 9.23242C1306.75 9.23242 1307.7 9.92578 1307.78 10.9219H1311.09C1311.03 8.31445 1308.74 6.52734 1305.44 6.52734C1302.04 6.52734 1299.84 8.33398 1299.84 11.0879C1299.84 13.3047 1301.16 14.7109 1303.74 15.1992L1305.6 15.5703C1307.21 15.8926 1307.82 16.3125 1307.82 17.0938C1307.82 18.0215 1306.91 18.666 1305.57 18.666C1304.08 18.666 1303.06 18.0117 1302.97 16.9863H1299.55ZM1325.73 18.1191H1319.66V15.2383H1325.37V12.6016H1319.66V9.78906H1325.73V6.9082H1316.07V21H1325.73V18.1191Z" fill="white"/>
<path d="M1067.12 17.3184C1067.31 19.75 1069.37 21.332 1072.36 21.332C1075.58 21.332 1077.62 19.6816 1077.62 17.0938C1077.62 15.0234 1076.45 13.8906 1073.53 13.1582L1072.05 12.7676C1070.11 12.2695 1069.34 11.6348 1069.34 10.5312C1069.34 9.10547 1070.58 8.16797 1072.46 8.16797C1074.21 8.16797 1075.4 9.02734 1075.65 10.4727H1077.42C1077.27 8.19727 1075.24 6.57617 1072.51 6.57617C1069.54 6.57617 1067.53 8.19727 1067.53 10.5898C1067.53 12.5918 1068.64 13.7441 1071.19 14.3887L1072.99 14.8574C1074.94 15.3457 1075.81 16.1074 1075.81 17.3086C1075.81 18.7051 1074.42 19.7305 1072.52 19.7305C1070.52 19.7305 1069.12 18.793 1068.9 17.3184H1067.12ZM1087.97 21V8.49023H1092.51V6.9082H1081.67V8.49023H1086.21V21H1087.97ZM1098.98 15.4238H1102.45L1105.47 21H1107.53L1104.27 15.1504C1106.04 14.5938 1107.1 13.0703 1107.1 11.1074C1107.1 8.56836 1105.32 6.9082 1102.61 6.9082H1097.23V21H1098.98V15.4238ZM1098.98 8.4707H1102.37C1104.19 8.4707 1105.28 9.47656 1105.28 11.166C1105.28 12.8945 1104.26 13.8613 1102.45 13.8613H1098.98V8.4707ZM1121.45 21H1123.3L1118.1 6.9082H1116.37L1111.17 21H1113.02L1114.43 16.9668H1120.04L1121.45 21ZM1117.16 9.18359H1117.31L1119.52 15.4727H1114.95L1117.16 9.18359ZM1131.53 21V8.49023H1136.07V6.9082H1125.23V8.49023H1129.77V21H1131.53ZM1149.52 19.418H1142.54V14.5742H1149.15V13.0117H1142.54V8.49023H1149.52V6.9082H1140.79V21H1149.52V19.418ZM1166.53 15.5508V13.832H1160.81V15.375H1164.78V15.7168C1164.78 18.0996 1163.07 19.7109 1160.55 19.7109C1157.72 19.7109 1155.96 17.5039 1155.96 13.9492C1155.96 10.4434 1157.75 8.19727 1160.54 8.19727C1162.63 8.19727 1164.04 9.20312 1164.65 11.1074H1166.44C1165.93 8.31445 1163.66 6.57617 1160.54 6.57617C1156.68 6.57617 1154.15 9.49609 1154.15 13.9492C1154.15 18.4609 1156.64 21.332 1160.54 21.332C1164.14 21.332 1166.53 19.0273 1166.53 15.5508ZM1176.99 21V14.9355L1181.99 6.9082H1179.99L1176.19 13.168H1176.04L1172.24 6.9082H1170.23L1175.23 14.9355V21H1176.99Z" fill="white"/>
<path d="M1358.62 15.5508V13.832H1352.91V15.375H1356.88V15.7168C1356.88 18.0996 1355.17 19.7109 1352.65 19.7109C1349.81 19.7109 1348.06 17.5039 1348.06 13.9492C1348.06 10.4434 1349.84 8.19727 1352.64 8.19727C1354.73 8.19727 1356.14 9.20312 1356.75 11.1074H1358.54C1358.03 8.31445 1355.76 6.57617 1352.64 6.57617C1348.78 6.57617 1346.25 9.49609 1346.25 13.9492C1346.25 18.4609 1348.74 21.332 1352.64 21.332C1356.24 21.332 1358.62 19.0273 1358.62 15.5508ZM1365.5 15.4238H1368.96L1371.98 21H1374.04L1370.78 15.1504C1372.55 14.5938 1373.61 13.0703 1373.61 11.1074C1373.61 8.56836 1371.83 6.9082 1369.12 6.9082H1363.74V21H1365.5V15.4238ZM1365.5 8.4707H1368.88C1370.7 8.4707 1371.79 9.47656 1371.79 11.166C1371.79 12.8945 1370.77 13.8613 1368.96 13.8613H1365.5V8.4707ZM1384.72 6.57617C1380.74 6.57617 1378.26 9.41797 1378.26 13.9492C1378.26 18.4609 1380.68 21.332 1384.72 21.332C1388.75 21.332 1391.19 18.4512 1391.19 13.9492C1391.19 9.42773 1388.73 6.57617 1384.72 6.57617ZM1384.72 8.19727C1387.6 8.19727 1389.38 10.4238 1389.38 13.9492C1389.38 17.4453 1387.61 19.7109 1384.72 19.7109C1381.79 19.7109 1380.06 17.4453 1380.06 13.9492C1380.06 10.4238 1381.85 8.19727 1384.72 8.19727ZM1403.47 9.87695H1403.59L1406.83 21H1408.49L1412.33 6.9082H1410.49L1407.69 18.3633H1407.57L1404.42 6.9082H1402.64L1399.49 18.3633H1399.37L1396.57 6.9082H1394.73L1398.57 21H1400.23L1403.47 9.87695ZM1422.42 21V8.49023H1426.96V6.9082H1416.12V8.49023H1420.67V21H1422.42ZM1442.93 21V6.9082H1441.17V13.002H1433.44V6.9082H1431.68V21H1433.44V14.584H1441.17V21H1442.93Z" fill="white"/>
</svg>
